<svg xmlns="http://www.w3.org/2000/svg" xmlns:xlink="http://www.w3.org/1999/xlink" id="uuid-19e784da-92f1-43b7-a055-e4734b57470c" viewBox="0 0 317.48 51.024"><defs><style>.uuid-f7064459-967a-4c8e-8488-55c788782b28{fill:#fff;}.uuid-700f2052-9bb8-4227-b55b-50de982f6854{fill:#1bafc0;}</style></defs><path class="uuid-700f2052-9bb8-4227-b55b-50de982f6854" d="M2.891,49.005V1.31h13.926v22.572L31.203,1.31h15.166l-15.307,22.218,15.875,25.477h-15.521l-14.599-24.379v24.379H2.891Z"></path><path class="uuid-700f2052-9bb8-4227-b55b-50de982f6854" d="M55.898,49.501c-3.425,0-6.184-1.004-8.274-3.012-2.091-2.008-3.136-5.138-3.136-9.39V14.314h13.216v21.19c0,.803.136,1.483.408,2.038.272.555.668.975,1.187,1.258.519.284,1.146.426,1.878.426,1.11,0,2.167-.289,3.171-.868,1.004-.578,1.954-1.412,2.853-2.498V14.314h13.216v34.691h-12.756l-.142-4.997c-1.228,1.559-2.735,2.865-4.518,3.916-1.784,1.051-4.152,1.576-7.105,1.576Z"></path><path class="uuid-700f2052-9bb8-4227-b55b-50de982f6854" d="M104.972,49.643c-2.077,0-3.909-.42-5.492-1.258s-3.119-2.156-4.607-3.951l-.353,4.571h-12.331V1.31h13.181v17.505c1.252-1.606,2.716-2.84,4.394-3.703,1.677-.862,3.672-1.294,5.988-1.294,2.764,0,5.198.645,7.301,1.931,2.101,1.288,3.744,3.255,4.924,5.9s1.772,6.036,1.772,10.169c0,4.064-.644,7.412-1.931,10.046-1.288,2.635-3.041,4.589-5.261,5.865-2.222,1.276-4.749,1.914-7.584,1.914ZM101.252,39.863c1.607,0,2.893-.667,3.863-2.002.968-1.334,1.452-3.431,1.452-6.29,0-2.928-.477-5.014-1.435-6.254-.956-1.24-2.249-1.861-3.88-1.861-1.512,0-2.787.503-3.827,1.507s-1.724,1.954-2.055,2.852v7.902c.52.945,1.259,1.872,2.215,2.782s2.179,1.364,3.667,1.364Z"></path><path class="uuid-700f2052-9bb8-4227-b55b-50de982f6854" d="M140.333,49.643c-3.639,0-6.891-.638-9.762-1.914-2.871-1.276-5.127-3.26-6.767-5.953-1.643-2.693-2.463-6.141-2.463-10.346,0-3.803.802-7.004,2.409-9.603,1.607-2.598,3.822-4.571,6.645-5.917,2.821-1.346,6.04-2.02,9.655-2.02,5.623,0,10.098,1.565,13.43,4.695,3.331,3.131,4.996,7.707,4.996,13.731,0,.236-.012.544-.034.921-.025.379-.059.697-.107.957h-23.883c.048,1.158.272,2.245.673,3.26.403,1.016,1.046,1.831,1.931,2.445.887.614,2.05.922,3.491.922,1.559,0,2.852-.278,3.88-.833,1.028-.555,1.578-1.47,1.648-2.746h12.261c-.19,3-1.058,5.409-2.604,7.229-1.547,1.819-3.639,3.136-6.273,3.951-2.633.815-5.675,1.222-9.123,1.222ZM134.734,27.107h10.702c-.119-1.748-.708-3-1.772-3.757-1.063-.756-2.268-1.134-3.615-1.134-1.371,0-2.558.42-3.56,1.258-1.006.839-1.59,2.05-1.755,3.633Z"></path><path class="uuid-f7064459-967a-4c8e-8488-55c788782b28" d="M160.482,49.005V1.31h13.43l17.185,26.079V1.31h13.075v47.695h-13.358l-17.328-26.399v26.399h-13.003Z"></path><path class="uuid-f7064459-967a-4c8e-8488-55c788782b28" d="M224.846,49.643c-3.639,0-6.893-.638-9.764-1.914-2.869-1.276-5.127-3.26-6.767-5.953-1.643-2.693-2.463-6.141-2.463-10.346,0-3.803.803-7.004,2.41-9.603,1.605-2.598,3.82-4.571,6.643-5.917s6.042-2.02,9.657-2.02c5.621,0,10.098,1.565,13.43,4.695,3.331,3.131,4.996,7.707,4.996,13.731,0,.236-.012.544-.036.921-.024.379-.059.697-.105.957h-23.883c.046,1.158.27,2.245.673,3.26.401,1.016,1.045,1.831,1.931,2.445.885.614,2.049.922,3.491.922,1.559,0,2.852-.278,3.88-.833,1.028-.555,1.576-1.47,1.648-2.746h12.261c-.19,3-1.058,5.409-2.606,7.229s-3.637,3.136-6.271,3.951c-2.635.815-5.675,1.222-9.123,1.222ZM219.245,27.107h10.703c-.119-1.748-.71-3-1.772-3.757-1.063-.756-2.269-1.134-3.615-1.134-1.371,0-2.558.42-3.562,1.258-1.004.839-1.588,2.05-1.755,3.633Z"></path><path class="uuid-f7064459-967a-4c8e-8488-55c788782b28" d="M303.753,19.007v-4.697h-6.575V5.805h-13.22v8.506h-5.671v10.036h5.671v11.654c0,3.322.487,5.949,1.478,7.827.991,1.896,2.696,3.218,5.114,4.001,2.4.783,5.74,1.183,10.019,1.183h3.044v-6.801c-5.323-1.165-9.306-5.931-9.306-11.584,0-5.723,4.053-10.506,9.445-11.619Z"></path><path class="uuid-f7064459-967a-4c8e-8488-55c788782b28" d="M276.521,32.475c-.956-1.358-2.31-2.432-4.058-3.224s-3.839-1.482-6.271-2.073c-2.528-.638-4.423-1.175-5.687-1.612s-2.096-.82-2.499-1.152c-.401-.33-.601-.65-.601-.957,0-.519.306-.903.921-1.151.613-.249,1.464-.373,2.551-.373,1.063,0,1.948.213,2.657.638.65.389.986.987,1.041,1.772h11.988c-.03-2.004-.463-3.686-1.317-5.031-.887-1.394-2.079-2.492-3.579-3.295-1.5-.803-3.195-1.37-5.086-1.701-1.889-.33-3.839-.496-5.845-.496-1.867,0-3.739.155-5.617.461-1.877.307-3.596.838-5.155,1.594-1.559.757-2.811,1.825-3.756,3.207-.946,1.382-1.418,3.159-1.418,5.333,0,2.387.608,4.329,1.826,5.829,1.216,1.501,2.804,2.675,4.765,3.526,1.962.85,4.063,1.524,6.309,2.02,3.047.685,5.053,1.253,6.023,1.701.968.448,1.452,1.075,1.452,1.878,0,.756-.403,1.282-1.204,1.577-.803.296-1.807.442-3.012.442-1.254,0-2.286-.189-3.102-.567-.814-.378-1.221-1.11-1.221-2.197l.012-1.382h-11.973l-.016,1.382c0,2.315.448,4.199,1.347,5.651.897,1.453,2.12,2.575,3.667,3.367,1.546.792,3.3,1.334,5.261,1.63,1.962.295,4.005.442,6.13.442,2.244,0,4.383-.212,6.414-.638,2.032-.425,3.832-1.098,5.403-2.02,1.571-.921,2.811-2.12,3.722-3.596.909-1.476,1.364-3.278,1.364-5.404,0-2.362-.479-4.222-1.435-5.581Z"></path><path class="uuid-700f2052-9bb8-4227-b55b-50de982f6854" d="M314.59,30.627c0,4.644-3.757,8.401-8.401,8.401s-8.401-3.757-8.401-8.401c0-2.505,1.096-4.749,2.818-6.279.904-.8,1.966-1.409,3.148-1.757.765-.243,1.583-.365,2.435-.365,4.644,0,8.401,3.757,8.401,8.402Z"></path></svg>